<?xml version="1.0" encoding="UTF-8"?><svg id="Layer_1" xmlns="http://www.w3.org/2000/svg" viewBox="0 0 145 58"><defs><style>.cls-1{fill:#fff;}.cls-2{fill:#cc2027;}.cls-3{fill:#003c6f;}</style></defs><path class="cls-1" d="m34.27,19.37c1.68-.55,3.01-1.29,4-2.24,1.48-1.41,2.4-3.11,2.74-5.09.42-2.36-.1-4.33-1.54-5.93-1.44-1.6-3.78-2.4-7-2.4H13.12s-5.9,33.44-5.9,33.44h17.84c.76,0,2.33-.15,4.71-.46,1.79-.23,3.16-.59,4.12-1.1,1.54-.81,2.84-1.9,3.89-3.28,1.05-1.38,1.73-2.94,2.03-4.68.38-2.13.12-3.9-.76-5.3-.88-1.41-2.48-2.4-4.78-2.98Zm-11.92-8.87h4.56c1.57,0,2.62.27,3.15.82.53.55.72,1.31.54,2.28-.19,1.05-.64,1.85-1.37,2.41-.73.56-1.9.83-3.51.83h-4.49s1.12-6.34,1.12-6.34Zm5.77,18.53c-.84.63-2.15.95-3.93.95h-5.27s1.19-6.78,1.19-6.78h5.25c1.81,0,3.02.3,3.64.9.62.6.84,1.4.66,2.38-.19,1.06-.7,1.91-1.54,2.54Z"/><path class="cls-1" d="m69.81,3.72l-18.47,33.44h10.55s2.6-5.52,2.6-5.52h11.73s.7,5.52.7,5.52h10.82s-6.67-33.44-6.67-33.44h-11.27Zm-1.79,20.69l5.77-12.02,1.57,12.02h-7.34Z"/><path class="cls-1" d="m134.7,13.98c.58-3.28.09-5.82-1.46-7.6-1.55-1.78-4.19-2.67-7.94-2.67h-17.18s-5.9,33.44-5.9,33.44h10.38s2.19-12.41,2.19-12.41h5.66c4.17,0,7.43-.95,9.8-2.85,2.37-1.9,3.85-4.54,4.44-7.92Zm-11.79,2.95c-.93.69-2.39,1.04-4.38,1.04h-2.53s1.32-7.46,1.32-7.46h2.94c1.93,0,3.18.37,3.75,1.09.57.73.76,1.62.58,2.67-.19,1.08-.75,1.97-1.68,2.66Z"/><g><path class="cls-3" d="m26.91,10.49h-4.56s-1.12,6.34-1.12,6.34h4.49c1.61,0,2.78-.28,3.51-.83.73-.56,1.19-1.36,1.37-2.41.17-.97-.01-1.73-.54-2.28-.53-.55-1.59-.82-3.15-.82Z"/><path class="cls-3" d="m25.36,23.2h-5.25s-1.19,6.78-1.19,6.78h5.27c1.78,0,3.09-.32,3.93-.95.84-.63,1.36-1.48,1.54-2.54.17-.99-.05-1.78-.66-2.38-.62-.6-1.83-.9-3.64-.9Z"/><path class="cls-3" d="m48.59,0H8.71C7.58,0,6.62.81,6.42,1.92L.04,38.15c-.25,1.42.84,2.73,2.29,2.73h39.87c1.13,0,2.09-.81,2.29-1.92L50.87,2.73C51.12,1.3,50.03,0,48.59,0Zm-7.57,12.04c-.35,1.98-1.26,3.67-2.74,5.09-.99.94-2.32,1.69-4,2.24,2.3.58,3.89,1.57,4.78,2.98.88,1.41,1.14,3.17.76,5.3-.31,1.73-.98,3.29-2.03,4.68-1.05,1.38-2.35,2.48-3.89,3.28-.96.5-2.33.87-4.12,1.1-2.38.3-3.95.46-4.71.46H7.22S13.12,3.72,13.12,3.72h19.34c3.22,0,5.56.8,7,2.4,1.44,1.6,1.96,3.57,1.54,5.93Z"/></g><g><path class="cls-2" d="m95.63,0h-39.87c-1.13,0-2.09.81-2.29,1.92l-6.39,36.23c-.25,1.42.84,2.73,2.29,2.73h39.87c1.13,0,2.09-.81,2.29-1.92l6.39-36.23C98.17,1.3,97.08,0,95.63,0Zm-18.7,37.16l-.7-5.52h-11.73s-2.6,5.52-2.6,5.52h-10.55S69.81,3.72,69.81,3.72h11.27s6.67,33.44,6.67,33.44h-10.82Z"/><polygon class="cls-2" points="68.02 24.41 75.37 24.41 73.79 12.38 68.02 24.41"/></g><g><path class="cls-3" d="m120.26,10.51h-2.94s-1.32,7.46-1.32,7.46h2.53c1.99,0,3.45-.35,4.38-1.04.93-.69,1.49-1.58,1.68-2.66.19-1.05,0-1.94-.58-2.67-.57-.73-1.82-1.09-3.75-1.09Z"/><path class="cls-3" d="m142.68,0h-39.87c-1.13,0-2.09.81-2.29,1.92l-6.39,36.23c-.25,1.42.84,2.73,2.29,2.73h39.87c1.13,0,2.09-.81,2.29-1.92l6.39-36.23C145.21,1.3,144.12,0,142.68,0Zm-7.98,13.98c-.6,3.38-2.08,6.01-4.44,7.92-2.37,1.9-5.63,2.85-9.8,2.85h-5.66s-2.19,12.41-2.19,12.41h-10.38s5.9-33.44,5.9-33.44h17.18c3.74,0,6.39.89,7.94,2.67,1.55,1.78,2.03,4.31,1.45,7.6Z"/></g><g><path class="cls-3" d="m9.41,51.61c.58-.19,1.05-.45,1.39-.78.52-.49.83-1.08.95-1.77.14-.82-.03-1.51-.54-2.06-.5-.56-1.31-.83-2.44-.83H2.05S0,57.8,0,57.8h6.21c.26,0,.81-.05,1.64-.16.62-.08,1.1-.21,1.43-.38.54-.28.99-.66,1.35-1.14.37-.48.6-1.02.71-1.63.13-.74.04-1.36-.27-1.84-.31-.49-.86-.83-1.66-1.04Zm-4.15-3.09h1.59c.54,0,.91.1,1.1.29.19.19.25.45.19.79-.06.37-.22.64-.48.84-.25.19-.66.29-1.22.29h-1.56s.39-2.21.39-2.21Zm2.01,6.45c-.29.22-.75.33-1.37.33h-1.83s.42-2.36.42-2.36h1.83c.63,0,1.05.1,1.27.31.21.21.29.49.23.83-.07.37-.24.67-.54.88Z"/><path class="cls-3" d="m19.76,53.26c-.11.64-.38,1.14-.79,1.49-.41.35-.93.53-1.55.53s-1.08-.18-1.37-.54c-.29-.36-.38-.85-.27-1.49l1.25-7.1h-3.59s-1.22,6.93-1.22,6.93c-.1.57-.11,1.23-.01,1.97.06.46.23.91.53,1.34.3.43.65.77,1.06,1,.41.24.94.39,1.6.47.66.08,1.27.12,1.83.12.98,0,1.84-.13,2.58-.39.54-.18,1.07-.51,1.61-.96.54-.46.97-.99,1.29-1.6s.54-1.26.66-1.95l1.22-6.93h-3.59s-1.25,7.1-1.25,7.1Z"/><polygon class="cls-3" points="33.49 46.17 30.45 50.09 28.79 46.17 24.8 46.17 28.14 52.93 27.28 57.8 30.88 57.8 31.74 52.93 37.46 46.17 33.49 46.17"/><path class="cls-2" d="m40.11,46.17l-6.42,11.63h3.67s.91-1.92.91-1.92h4.08s.24,1.92.24,1.92h3.76s-2.32-11.63-2.32-11.63h-3.92Zm-.62,7.2l2.01-4.18.55,4.18h-2.55Z"/><path class="cls-2" d="m54.28,53.26c-.11.64-.38,1.14-.79,1.49-.41.35-.93.53-1.55.53s-1.08-.18-1.37-.54c-.29-.36-.38-.85-.27-1.49l1.25-7.1h-3.59s-1.22,6.93-1.22,6.93c-.1.57-.11,1.23-.01,1.97.06.46.23.91.53,1.34.3.43.65.77,1.06,1,.41.24.94.39,1.6.47.66.08,1.27.12,1.83.12.98,0,1.84-.13,2.58-.39.54-.18,1.07-.51,1.61-.96.54-.46.97-.99,1.29-1.6.32-.61.54-1.26.66-1.95l1.22-6.93h-3.59s-1.25,7.1-1.25,7.1Z"/><polygon class="cls-2" points="70.4 46.17 59.77 46.17 59.27 49.04 62.93 49.04 61.39 57.8 64.98 57.8 66.53 49.04 69.9 49.04 70.4 46.17"/><path class="cls-2" d="m76.39,45.97c-1.89,0-3.46.53-4.7,1.59-1.24,1.06-2.03,2.54-2.37,4.44-.24,1.36-.17,2.49.2,3.4.37.9.96,1.57,1.74,1.98.79.42,1.83.63,3.15.63,1.29,0,2.41-.24,3.36-.73.95-.48,1.73-1.16,2.34-2.03.61-.87,1.04-1.99,1.28-3.34.33-1.87.06-3.33-.8-4.37-.86-1.04-2.26-1.56-4.2-1.56Zm.3,8.59c-.51.5-1.15.75-1.93.75s-1.3-.26-1.65-.77c-.35-.51-.42-1.36-.21-2.53s.58-2.03,1.11-2.55c.53-.51,1.16-.77,1.88-.77s1.31.25,1.66.76c.35.51.43,1.31.24,2.4-.23,1.3-.6,2.2-1.11,2.71Z"/><path class="cls-3" d="m93.46,49.74c.2-1.14.03-2.02-.51-2.64-.54-.62-1.46-.93-2.76-.93h-5.98s-2.05,11.63-2.05,11.63h3.61s.76-4.32.76-4.32h1.97c1.45,0,2.59-.33,3.41-.99.82-.66,1.34-1.58,1.54-2.75Zm-4.1,1.03c-.32.24-.83.36-1.52.36h-.88s.46-2.59.46-2.59h1.02c.67,0,1.11.13,1.31.38.2.25.27.56.2.93s-.26.68-.58.92Z"/><path class="cls-3" d="m97.02,46.17l-6.42,11.63h3.67s.91-1.92.91-1.92h4.08s.24,1.92.24,1.92h3.76s-2.32-11.63-2.32-11.63h-3.92Zm-.62,7.2l2.01-4.18.55,4.18h-2.55Z"/><path class="cls-3" d="m113.37,53.71c-.2-.31-.35-.52-.47-.61-.17-.14-.46-.29-.86-.43.56-.12,1-.28,1.34-.46.53-.29.98-.67,1.34-1.14s.59-1.03.71-1.67c.13-.74.06-1.37-.21-1.88s-.68-.87-1.23-1.06c-.55-.19-1.39-.29-2.5-.29h-5.99s-2.05,11.63-2.05,11.63h3.61s.83-4.72.83-4.72h.32c.33,0,.61.09.83.27.17.14.33.44.49.9l1.29,3.56h4.06s-1.15-3.37-1.15-3.37c-.05-.17-.18-.41-.38-.72Zm-1.95-3.35c-.19.2-.4.32-.65.37-.49.11-.82.16-.98.16h-1.52s.42-2.36.42-2.36h1.58c.66,0,1.09.1,1.29.3.2.2.27.49.2.86-.04.25-.16.48-.35.67Z"/><polygon class="cls-3" points="126.87 46.17 116.24 46.17 115.74 49.04 119.4 49.04 117.86 57.8 121.45 57.8 123 49.04 126.37 49.04 126.87 46.17"/><path class="cls-3" d="m134.5,51.01c-.62-.35-1.68-.69-3.2-1.03-.61-.13-.99-.28-1.13-.43-.15-.15-.21-.31-.17-.5.04-.25.19-.47.43-.65.24-.18.57-.27.99-.27.51,0,.88.12,1.13.36.25.24.37.62.37,1.14l3.42-.2c.06-1.21-.24-2.09-.93-2.64-.68-.55-1.77-.83-3.25-.83-1.21,0-2.19.15-2.94.46-.75.3-1.34.72-1.78,1.25-.44.53-.71,1.1-.82,1.69-.16.91.05,1.66.62,2.25.57.59,1.61,1.06,3.12,1.41.93.21,1.5.44,1.72.67.22.24.31.51.25.81-.06.32-.24.6-.56.84s-.74.36-1.25.36c-.69,0-1.18-.24-1.46-.71-.18-.29-.25-.71-.23-1.27l-3.46.21c-.11,1.17.15,2.14.78,2.9.63.76,1.93,1.14,3.91,1.14,1.13,0,2.09-.16,2.89-.49.8-.33,1.46-.8,1.98-1.43.52-.63.85-1.32.98-2.06.11-.63.06-1.21-.16-1.72s-.64-.94-1.26-1.29Z"/><g><polygon class="cls-3" points="138.67 57.8 139.53 57.8 139.69 56.89 138.83 56.89 138.67 57.8"/><path class="cls-3" d="m139.81,53.83c-.14-.12-.31-.21-.54-.26l-.4.83c.19.04.32.11.41.2.09.09.11.23.08.41s-.12.33-.27.44c-.14.1-.39.15-.73.15-.27,0-.47-.04-.58-.13-.15-.11-.21-.28-.17-.49.02-.09.05-.18.1-.26.05-.08.12-.14.2-.19.05-.03.12-.06.22-.09l-.04-.84c-.34.11-.61.27-.81.49-.2.22-.33.52-.39.91-.09.49-.02.88.21,1.15.22.27.59.4,1.1.4.38,0,.71-.08.98-.23.27-.15.47-.34.61-.55.13-.21.23-.48.29-.82.05-.27.05-.5,0-.68s-.14-.33-.27-.45Z"/><path class="cls-3" d="m138.79,53.27c.36,0,.67-.07.93-.21.26-.14.47-.32.62-.55s.26-.51.32-.86.05-.62-.04-.85-.24-.4-.44-.52c-.21-.12-.49-.18-.85-.18-.49,0-.9.14-1.22.41-.32.28-.53.67-.62,1.18s-.02.89.21,1.16c.23.28.59.42,1.1.42Zm-.31-2.05c.15-.12.37-.17.66-.17.34,0,.57.06.68.17.11.11.15.27.12.47s-.13.35-.29.47c-.16.12-.39.17-.7.17s-.53-.06-.64-.17c-.11-.12-.16-.27-.12-.46s.13-.36.28-.47Z"/><polygon class="cls-3" points="141.11 48.84 138.77 48.84 141.21 48.24 141.34 47.54 139.1 46.94 141.44 46.94 141.58 46.17 138.51 46.17 138.29 47.41 140.07 47.89 138.12 48.37 137.9 49.62 140.97 49.62 141.11 48.84"/></g></g></svg>