<?xml version="1.0" encoding="utf-8"?>
<!-- Generator: Adobe Illustrator 18.0.0, SVG Export Plug-In . SVG Version: 6.00 Build 0)  -->
<!DOCTYPE svg PUBLIC "-//W3C//DTD SVG 1.1//EN" "http://www.w3.org/Graphics/SVG/1.1/DTD/svg11.dtd">
<svg version="1.1" id="Layer_1" xmlns="http://www.w3.org/2000/svg" xmlns:xlink="http://www.w3.org/1999/xlink" x="0px" y="0px"
	 width="328" height="23" viewBox="-155 -2.5 328 23" enable-background="new -155 -2.5 328 23" xml:space="preserve">
<path fill="#F48120" d="M35-1.9L29.1,20h138L173-1.9L35-1.9"/>
<g>
	<path fill="#FFFFFF" d="M38.3,0.8h9.4l0.1,10l5.7-10h9.3l-4.4,16.3h-5.9L56,4.4l-7.3,12.7h-5L43.2,4.4l-3.4,12.7h-5.9L38.3,0.8"/>
	<path fill="#FFFFFF" d="M68.6,8.8c-0.8,3.1-0.4,4.4,2.2,4.4s3.7-1.3,4.5-4.4l2.1-8h6.4l-2.3,8.5c-1.5,5.7-5.2,8.2-11.9,8.2
		c-6.6,0-9-2.5-7.5-8.2l2.3-8.6h6.4L68.6,8.8"/>
	<path fill="#FFFFFF" d="M89.9,12.1c-0.1,0.9,0.7,1.4,2.5,1.4c1.7,0,2.7-0.4,2.9-1.2c0.2-0.7-0.5-1.1-1.9-1.3l-4.6-0.6
		c-3.8-0.5-5.4-2-4.6-4.8c1-3.7,4.4-5.3,10.9-5.3c6.7,0,9.6,1.5,8.9,5.2h-7.4c0.1-1-0.8-1.6-2.8-1.6c-1.5,0-2.4,0.5-2.6,1.1
		c-0.2,0.7,0.5,0.9,2.1,1.2L98.9,7c3.5,0.5,4.9,2.1,4.1,4.8c-1.1,4.1-5.2,5.8-12.7,5.8c-6.2,0-9-2-8.1-5.5H89.9L89.9,12.1z"/>
	<path fill="#FFFFFF" d="M117.1,4.6c-2.7,0-4.6,1.6-5.4,4.4c-0.8,2.9,0.3,4.4,3,4.4c2,0,3.4-0.9,4.3-2.7h7.3
		c-1.9,4.5-6.2,6.9-12.7,6.9c-7.3-0.1-10.3-3-8.8-8.6s6-8.6,13.3-8.6c6.9,0,9.9,2.6,8.9,7.3h-7.3C120.2,5.7,119.2,4.6,117.1,4.6"/>
	<path fill="#FFFFFF" d="M130.4,0.8h6.4l-3.2,11.8h10l-1.3,4.5h-16.4L130.4,0.8"/>
	<path fill="#FFFFFF" d="M148.6,0.8H166l-1.1,4h-11l-0.5,2h8.9l-1.1,4h-8.9l-0.6,2.2h11.6l-1.1,4.2h-17.9L148.6,0.8"/>
	<path fill="#FFFFFF" d="M-119.4,20l1.5-5.8l0.2,5.8h8.1l3-5.2l-1.3,5.2h8h2.1h19.5h2.3h8.3l1.5-5.8h3.2c0.3,0,0.5,0,0.6,0
		c0,0,0,0,0,0.1c-0.1,0.5-0.2,0.9-0.3,1.4c-0.3,1.1-0.5,2.7-0.3,3.5c0.1,0.5,0.5,0.8,0.5,0.8h8.1h2.4h8.2l1.1-4.1
		c0.2,0.3,0.4,0.6,0.6,0.9c1.9,2.4,5.4,3.7,10.6,3.7c3.5,0,6.3-0.6,8.6-1.5l-0.7,1H-12l1.2-1.9h5.7L-5,20h7.7h3.4h6.7l2.1-8l3.6,8
		h10.4l5.9-21.9H24.5l-2,7.5l-3-7.5H8.6L5,11.5L3.1-1.9H-8.4l-6,8.5c0.2-2.1-0.3-4-1.5-5.5c-1.9-2.4-5.5-3.6-10.6-3.6
		c-6,0-10,1.7-12.6,4l1.1-3.4h-10.6l-0.6,2.1c-0.3-0.3-0.5-0.6-0.9-0.8c-1.2-0.9-3.2-1.3-6.9-1.3h-13.8h-1.7h-19.6h-2.1h-4.7h-1.7
		h-5.2l-4.1,7.3v-7.3h-5.4h-1.5h-6.8l-3,11.3l-1.5-11.3h-11.5L-155,20"/>
</g>
<g>
	<path fill="#1891CD" d="M-7.5-0.3h9.3l2.6,18.8h-7.9l-0.1-1.9h-8l-1.2,1.9h-7.9L-7.5-0.3 M-4.1,11.9l-0.5-6.6l-4.2,6.6H-4.1"/>
	<path fill="#1891CD" d="M-92.9-0.3h20.1L-74,4.3h-12.8l-0.6,2.3h10.3l-1.2,4.7h-10.3l-0.7,2.5H-76l-1.3,4.9h-20.6L-92.9-0.3"/>
	<path fill="#1891CD" d="M-47.4-0.3h7.3l-5,18.8h-7.3L-47.4-0.3"/>
	<path fill="#1891CD" d="M-50.9,0.6c1.2,0.8,1.6,2.3,1.1,4.1c-0.6,2.2-2.2,4-4.4,4.8c1.8,0.8,1.8,1.9,1.3,4c-0.6,2.7-1,4.3-0.2,4.7
		l-0.1,0.3h-8.2c-0.3-0.9,0.3-2.3,0.5-3.9c0.2-1.4-0.3-1.9-2.1-1.9h-4.4l-1.5,5.8h-7.4l5-18.8h14.4C-53.9-0.3-51.9-0.1-50.9,0.6
		 M-61.8,7.8c2,0,3.1-0.4,3.5-1.7c0.4-1.4-0.6-1.6-2.8-1.6h-4.1l-0.9,3.4L-61.8,7.8L-61.8,7.8z"/>
	<path fill="#1891CD" d="M9.8-0.3h8.7l4.4,10.9l2.9-10.9h7.1l-5,18.8h-8.2l-5-11.1l-2.9,11.1H4.9L9.8-0.3"/>
	<path fill="#1891CD" d="M-27.6,4c-3.1,0-5.3,1.8-6.2,5.1c-0.9,3.3,0.4,5.1,3.5,5.1c2.3,0,3.9-1,4.9-3.1h8.5C-19,16.3-24,19-31.6,19
		c-8.4,0-11.8-3.4-10.1-9.9c1.7-6.5,6.9-9.9,15.4-9.9c7.9,0,11.5,3,10.3,8.4h-8.4C-24.1,5.3-25.2,4-27.6,4"/>
	<path fill="#1891CD" d="M-104.8-0.3l-6.5,11.5l-0.2-11.5h-10.8l-4.7,17.4l-0.6-4.4l-7,4.1l0.1,1.6h7.1h0.6h6.2l3.9-14.6l0.6,14.6
		h5.7l8.4-14.6l-3.9,14.6h6.8l5-18.7L-104.8-0.3z"/>
	<path fill="#1891CD" d="M-129.5-0.3h-9.3l-8.6,12.2h7.1l4.9-8.1l0.5,8.1h7.1L-129.5-0.3z"/>
</g>
<path fill="#1890CC" d="M-150.3,15.9l-1.7,2.5h7.7l1-1.6l-4.7-4.1L-150.3,15.9z"/>
</svg>
