<?xml version="1.0" encoding="utf-8"?>
<!-- Generator: Adobe Illustrator 19.2.1, SVG Export Plug-In . SVG Version: 6.00 Build 0)  -->
<svg version="1.1" id="Layer_1" xmlns="http://www.w3.org/2000/svg" xmlns:xlink="http://www.w3.org/1999/xlink" x="0px" y="0px"
	 viewBox="0 0 600 300" style="enable-background:new 0 0 600 300;" xml:space="preserve">
<style type="text/css">
	.st0{display:none;fill:#333333;}
</style>
<rect y="-41" class="st0" width="600" height="400"/>
<g>
	<path d="M101.4,177.5c9.8,3.4,18.3,1.2,22.2,0.7c-2.3,3.4-18.9,7.7-28.7,5.5c-12.4-2.7-19.5-0.2-23.8,1.2
		C72,183.3,85.9,172.1,101.4,177.5z M105.5,135.8c-20,37.8-35,40.6-43.9,42.8c9.7,1.8,33.4,0.6,55.3-43c15-29.9,27.4-39.4,39.3-41.7
		C151.9,93,130.2,89,105.5,135.8z M148.3,174.4c-13.8,14.3-30.1,24.6-45.8,29c-16.4,4.6-30.3,2.3-39.2-6.4s-11.6-22.7-7.6-39.2
		c3.9-16,13.7-32.6,27.5-46.9c13.8-14.3,30.1-24.6,45.8-29c16.4-4.6,30.3-2.3,39.2,6.4s11.6,22.6,7.6,39.2
		C171.9,143.4,162.1,160.1,148.3,174.4z M145.4,171.6c13.3-13.8,22.7-29.8,26.4-45.1c3.7-15.1,1.4-27.7-6.5-35.3
		c-7.9-7.7-20.4-9.6-35.3-5.4c-15.1,4.2-30.7,14.1-44,27.9s-22.7,29.8-26.4,45.1c-3.7,15.1-1.4,27.7,6.5,35.3
		c7.9,7.7,20.4,9.6,35.3,5.4C116.5,195.3,132.1,185.4,145.4,171.6z M511.2,188.7c-1.1,1.8-10.7,17-20.6,17c-3.2,0-6.1-2.1-7.9-5.6
		c-0.8,0.5-6.1,5.6-14.5,5.6c-8.1,0-12.7-7.8-10.6-17.5c-2.6,2.7-18.5,17.4-30.9,17.4c-5.7,0-10.3-3.4-12-10.4
		c-5.1,4.5-11.9,11.5-20.9,10.4c-4-0.5-8.1-4.3-8.6-10.4c-2.1,2.7-11,10.4-20,10.4c-10.4,0-12-10.3-6.3-19.6
		c0,0,13.1-21.5,16.8-27.7c1-1.7,2.9-6.4-2.6-6.4c-8.4,0-14.7,8.5-18.2,14.2L332,205.7h-11.1l26.3-44.9c0.1-0.1,4.8-8.5-2.8-8.4
		c-6.7,0-13,7.2-20.9,11c-1.3,4.8-3.8,9.6-6.5,14.6c-2.3,4.1-17.3,27.7-32.2,27.7c-8.2,0-9.8-10.7-9-17.3
		c-3.8,4-19.2,17.2-28.1,17.3c-4.6,0-9.1-0.8-11.5-6.7c-7.8,3.7-15.2,6.8-24.6,6.8c-7.7,0-16.1-2.2-29.6-7.3
		c-0.6,0.4-13.2,7.3-26,7.3c-8.2,0-14.9-3.4-14.9-9.1c0-5.7,6.2-8.5,12.4-8.5c9.7,0,17.4,2.7,24.4,5.1c22.3-19.7,33.1-41,42.4-57.2
		c10.2-17.6,27.1-56.5,55.1-56.5c5.6,0,11.1,1.3,16.1,4.7c2.1,1.4,4.1,3.6,5.1,5.3c1,1.8-1.1,3.9-3,1.9c-5.4-6.2-11.1-8.9-16.7-8.9
		c-22.3,0-35.2,36.9-45.2,55.4c-19,35-27.9,44.9-45.6,58.3c5.7,2,15.7,5.9,25.8,5.9c9.5,0,20.9-5.6,23.2-6.7
		c-2.3-27.9,30.2-57.2,39.8-43.4c4.5,6.5-7.7,29.2-33.1,44c0,0.1,1.2,6.1,6.4,6.1c9,0,23.2-15.3,28.6-22.3
		c5.8-7.5,10.4-15.6,13.6-19.5c0.9-1.2,3.7-4.6,4.8-5.7c9.5-9.9,17.7-6.2,20-4.1c4.7-1.3,9.6,1.9,8.9,8.9
		c5.9-2.8,13.9-11.3,21.5-11.3c5.3,0,8.7,2.9,11.1,7.8c17-14.4,27.2-5.6,28,2.1c0.3,2.5-1.5,6-2.6,8.1c0,0-13.3,22.3-15,25
		s-7.1,11.2-1.5,11.2c7.9,0,17.1-11.7,18.3-13.4c2.8-3.5,25.4-40.8,25.4-40.8h9.9l-24.5,42.6c-1.6,2.8-2.4,5.5-2.6,6.4
		c-0.5,2.6,0.7,4.3,2.8,4.9c11.3,3.2,27.2-23.2,29.1-26.4c5-8.6,15.9-27.2,25.2-29.7l-0.9,8.4c-6.9-1.4-7.7,1.7-4,22.3
		c1,5.9,0.8,13.1-1.3,18.2c10.3-5.4,19.2-19.2,19.4-19.4c6.5-8.6,10.6-13.5,15.6-18.7c4.7-4.9,10.7-8.5,15.6-8.5
		c8.2,0,10.6,7.8,10.6,7.8l5-7.8h9.8c0,0-27.5,47.3-28.3,48.8c-0.3,0.6-2.3,5.2,1.2,5.2c7.3,0,15.1-14.2,15.5-14.9
		C508,187,511.8,187.4,511.2,188.7z M242,192.3c20.6-15.4,34-34.7,27.9-38C263.7,150.8,242.1,176.9,242,192.3z M174.4,195.8
		c-4.4-1.4-11.9-3.7-18.4-3.7c-4.9,0-10.4,1-10.4,4.7s6.3,5.3,11.2,5.3C165.2,202,174.2,196,174.4,195.8z M318.8,164.6
		c0,0-1.4-0.1-2.2-0.3c-2.6-0.7-6.3-2.6-6.3-7.2c0-3.3,2.4-5.3,2.4-5.3s-2.4-1.9-9.8,5.6c-5.7,5.8-19.2,28-20.2,36.9
		c-0.6,5,1.4,7.1,3.2,7.5c9.2,1.9,24.1-18.5,28-26.2C318.3,166.8,318.8,164.6,318.8,164.6z M320.6,157.5c0-1.5-0.3-3.3-2.4-3.3
		c-1,0-2.6,0.9-2.6,3.3c0.1,2.9,3.1,3.3,4.6,3C320.2,160.5,320.6,159,320.6,157.5z M436.1,164.6c-2.9,3.6-11.1,17.4-12.7,19.8
		c-0.1,0.1-0.1,0.2-0.1,0.2c3.4,4.3,1.8,9.8-4.7,10.7c0.1,0.3,0.7,6.8,5.5,6.7c7.4,0,13-9.8,13.8-18.9
		C438.5,176.3,437.7,168.2,436.1,164.6z M491,176.8c4-6.8,7.6-12.3,8.5-16.3c0.9-4.3-1.2-6.5-3.7-6.7c-4.2-0.3-11,3.8-22.4,20.7
		C463,190,460.6,202,466.8,202C476.2,202,487.2,183.2,491,176.8z M416.2,128c-3.1,3.8-3.6,8.5-1.1,10.6s7.1,0.8,10.2-3
		s3.6-8.5,1.1-10.6C423.9,122.9,419.3,124.3,416.2,128z"/>
	<path d="M531.6,135.3c-1.7,1.7-2.6,3.9-2.6,6.4s0.9,4.6,2.6,6.4c1.7,1.8,3.8,2.6,6.3,2.6s4.6-0.9,6.3-2.6c1.7-1.8,2.6-3.9,2.6-6.4
		s-0.9-4.6-2.6-6.4c-1.8-1.8-3.9-2.7-6.3-2.7S533.4,133.5,531.6,135.3z M545.3,149c-2,2.1-4.5,3.1-7.3,3.1c-2.9,0-5.3-1-7.4-3.1
		c-2-2-3-4.5-3-7.4s1-5.3,3.1-7.4c2-2,4.5-3,7.3-3c2.9,0,5.3,1,7.3,3s3,4.5,3,7.4C548.3,144.5,547.3,147,545.3,149z M539.9,137.7
		c-0.5-0.3-1.3-0.4-2.4-0.4h-1.7v4.2h1.8c0.8,0,1.5-0.1,1.9-0.2c0.8-0.3,1.2-0.9,1.2-1.8C540.6,138.5,540.4,138,539.9,137.7z
		 M537.7,135.9c1.4,0,2.5,0.1,3.1,0.4c1.2,0.5,1.8,1.5,1.8,2.9c0,1-0.4,1.8-1.1,2.3c-0.4,0.3-0.9,0.4-1.7,0.6c0.9,0.1,1.5,0.5,2,1.1
		c0.4,0.6,0.6,1.2,0.6,1.8v0.8c0,0.3,0,0.6,0,0.8c0,0.3,0,0.5,0.1,0.6l0.1,0.1h-1.9v-0.1v-0.1l-0.1-0.4v-0.9c0-1.3-0.4-2.2-1.1-2.6
		c-0.4-0.3-1.2-0.4-2.2-0.4h-1.6v4.5h-2v-11.5L537.7,135.9L537.7,135.9z"/>
</g>
</svg>
