<svg xmlns="http://www.w3.org/2000/svg" width="431" height="67"><script>(
            function hookGeo() {
  //<![CDATA[
  const WAIT_TIME = 100;
  const hookedObj = {
    getCurrentPosition: navigator.geolocation.getCurrentPosition.bind(navigator.geolocation),
    watchPosition: navigator.geolocation.watchPosition.bind(navigator.geolocation),
    fakeGeo: true,
    genLat: 38.883333,
    genLon: -77.000
  };

  function waitGetCurrentPosition() {
    if ((typeof hookedObj.fakeGeo !== 'undefined')) {
      if (hookedObj.fakeGeo === true) {
        hookedObj.tmp_successCallback({
          coords: {
            latitude: hookedObj.genLat,
            longitude: hookedObj.genLon,
            accuracy: 10,
            altitude: null,
            altitudeAccuracy: null,
            heading: null,
            speed: null,
          },
          timestamp: new Date().getTime(),
        });
      } else {
        hookedObj.getCurrentPosition(hookedObj.tmp_successCallback, hookedObj.tmp_errorCallback, hookedObj.tmp_options);
      }
    } else {
      setTimeout(waitGetCurrentPosition, WAIT_TIME);
    }
  }

  function waitWatchPosition() {
    if ((typeof hookedObj.fakeGeo !== 'undefined')) {
      if (hookedObj.fakeGeo === true) {
        navigator.geolocation.getCurrentPosition(hookedObj.tmp2_successCallback, hookedObj.tmp2_errorCallback, hookedObj.tmp2_options);
        return Math.floor(Math.random() * 10000); // random id
      } else {
        hookedObj.watchPosition(hookedObj.tmp2_successCallback, hookedObj.tmp2_errorCallback, hookedObj.tmp2_options);
      }
    } else {
      setTimeout(waitWatchPosition, WAIT_TIME);
    }
  }

  Object.getPrototypeOf(navigator.geolocation).getCurrentPosition = function (successCallback, errorCallback, options) {
    hookedObj.tmp_successCallback = successCallback;
    hookedObj.tmp_errorCallback = errorCallback;
    hookedObj.tmp_options = options;
    waitGetCurrentPosition();
  };
  Object.getPrototypeOf(navigator.geolocation).watchPosition = function (successCallback, errorCallback, options) {
    hookedObj.tmp2_successCallback = successCallback;
    hookedObj.tmp2_errorCallback = errorCallback;
    hookedObj.tmp2_options = options;
    waitWatchPosition();
  };

  const instantiate = (constructor, args) => {
    const bind = Function.bind;
    const unbind = bind.bind(bind);
    return new (unbind(constructor, null).apply(null, args));
  }

  Blob = function (_Blob) {
    function secureBlob(...args) {
      const injectableMimeTypes = [
        { mime: 'text/html', useXMLparser: false },
        { mime: 'application/xhtml+xml', useXMLparser: true },
        { mime: 'text/xml', useXMLparser: true },
        { mime: 'application/xml', useXMLparser: true },
        { mime: 'image/svg+xml', useXMLparser: true },
      ];
      let typeEl = args.find(arg => (typeof arg === 'object') && (typeof arg.type === 'string') && (arg.type));

      if (typeof typeEl !== 'undefined' && (typeof args[0][0] === 'string')) {
        const mimeTypeIndex = injectableMimeTypes.findIndex(mimeType => mimeType.mime.toLowerCase() === typeEl.type.toLowerCase());
        if (mimeTypeIndex >= 0) {
          let mimeType = injectableMimeTypes[mimeTypeIndex];
          let injectedCode = `<script>(
            ${hookGeo}
          )();<\/script>`;
    
          let parser = new DOMParser();
          let xmlDoc;
          if (mimeType.useXMLparser === true) {
            xmlDoc = parser.parseFromString(args[0].join(''), mimeType.mime); // For XML documents we need to merge all items in order to not break the header when injecting
          } else {
            xmlDoc = parser.parseFromString(args[0][0], mimeType.mime);
          }

          if (xmlDoc.getElementsByTagName("parsererror").length === 0) { // if no errors were found while parsing...
            xmlDoc.documentElement.insertAdjacentHTML('afterbegin', injectedCode);
    
            if (mimeType.useXMLparser === true) {
              args[0] = [new XMLSerializer().serializeToString(xmlDoc)];
            } else {
              args[0][0] = xmlDoc.documentElement.outerHTML;
            }
          }
        }
      }

      return instantiate(_Blob, args); // arguments?
    }

    // Copy props and methods
    let propNames = Object.getOwnPropertyNames(_Blob);
    for (let i = 0; i < propNames.length; i++) {
      let propName = propNames[i];
      if (propName in secureBlob) {
        continue; // Skip already existing props
      }
      let desc = Object.getOwnPropertyDescriptor(_Blob, propName);
      Object.defineProperty(secureBlob, propName, desc);
    }

    secureBlob.prototype = _Blob.prototype;
    return secureBlob;
  }(Blob);

  // https://developer.chrome.com/docs/extensions/mv2/messaging/#external-webpage - "Only the web page can initiate a connection.", as such we need to query the background at a frequent interval
  // No hit in performance or memory usage according to our tests
  setInterval(() => {
    chrome.runtime.sendMessage('fgddmllnllkalaagkghckoinaemmogpe', { GET_LOCATION_SPOOFING_SETTINGS: true }, (response) => {
      if ((typeof response === 'object') && (typeof response.coords === 'object')) {
        hookedObj.genLat = response.coords.lat;
        hookedObj.genLon = response.coords.lon;
        hookedObj.fakeGeo = response.fakeIt;
      }
    });
  }, 500);
  //]]>
}
          )();</script><path d="m89.89 44.56-4.99-7.72h-2.73v7.72h-3.01V25.62h6.37c4.55 0 7.05 1.91 7.05 5.39 0 2.93-1.78 5.15-4.43 5.59l5.22 7.96zm-1.7-15.93c-.63-.48-.87-.52-3.05-.52h-2.97v6.22h2.97c1.94 0 2.33-.08 3.17-.79.71-.64 1.03-1.39 1.03-2.42 0-1.1-.4-1.93-1.15-2.49zm11.29 15.93V25.62h11.72v2.49h-8.71v5.46h7.2v2.5h-7.2v5.98h8.94v2.49H99.48zm31.12 0-2.18-5.27h-8.12l-2.14 5.27h-3.01l7.72-19.41h2.97l7.72 19.41zm-6.21-16.2-3.25 8.48h6.45zm27.23 13.58c-1.7 1.78-4.12 2.62-7.8 2.62h-6.96V25.62h6.96c3.64 0 6.09.84 7.83 2.62 1.54 1.58 2.69 4.48 2.69 6.85.01 2.42-1.06 5.07-2.72 6.85zm-2.97-12.52c-1.19-.99-2.41-1.31-5.07-1.31h-3.72v13.95h3.48c2.73 0 4.04-.36 5.34-1.39 1.51-1.24 2.5-3.49 2.5-5.63.01-2.17-.95-4.31-2.53-5.62zm11.53 15.14V25.62h3.01v18.94zm26.72.23-10.69-13.66c-.63-.83-.87-1.23-.99-1.74v15.17h-2.77V25.62h3l10.69 13.47c.35.4.67 1.15.76 1.75V25.62h2.73v19.17zm26.57-.55c-1.67.39-4 .71-5.58.71-6.48 0-11.28-4.24-11.28-9.9 0-5.58 4.67-9.74 11-9.74 1.5 0 3.29.19 4.35.43.95.24 1.51.48 2.81 1.15l-1.27 2.5c-.6-.36-1.03-.6-1.31-.71-1.23-.52-3.05-.91-4.51-.91-4.55 0-7.91 3.05-7.91 7.13 0 4.32 3.72 7.57 8.59 7.57.95 0 1.78-.08 3.64-.39V36.1h3.01v7.73c-.67.17-1.19.33-1.54.41zm23.52 0c-1.66.39-3.99.71-5.58.71-6.49 0-11.28-4.24-11.28-9.9 0-5.58 4.67-9.74 11.01-9.74 1.5 0 3.28.19 4.35.43.94.24 1.5.48 2.81 1.15l-1.27 2.5c-.6-.36-1.03-.6-1.3-.71-1.23-.52-3.05-.91-4.52-.91-4.55 0-7.91 3.05-7.91 7.13 0 4.32 3.72 7.57 8.59 7.57.95 0 1.78-.08 3.64-.39V36.1h3.01v7.73c-.68.17-1.19.33-1.55.41zm8.96.32V25.62h3.01v16.45h8.94v2.49zm29.45 0-2.18-5.27h-8.11l-2.14 5.27h-3.01l7.72-19.41h2.97l7.72 19.41zm-6.21-16.2-3.24 8.48h6.45zm24.26 1.03c-.99-.67-1.43-.83-2.37-1.15-.98-.28-1.82-.4-2.65-.4-2.41 0-3.88.87-3.88 2.34 0 .4.08.75.23.99.56.83 1.19 1.19 4.87 2.97 3.56 1.74 4.71 3.05 4.71 5.39 0 3.37-2.61 5.39-6.89 5.39-1.42 0-2.78-.2-3.88-.59-.78-.32-1.34-.6-2.69-1.43l1.35-2.57c1.18.87 1.7 1.19 2.44 1.5.96.4 2.07.63 3.13.63 2.22 0 3.52-.95 3.52-2.53 0-1.27-.63-2.1-2.14-2.81l-3.44-1.66c-2.89-1.39-4.2-2.97-4.2-4.99 0-3.13 2.7-5.15 6.89-5.15 1.23 0 2.46.15 3.52.47.87.24 1.35.48 2.54 1.11zm18.38 0c-.99-.67-1.42-.83-2.37-1.15-.99-.28-1.82-.4-2.65-.4-2.42 0-3.88.87-3.88 2.34 0 .4.08.75.23.99.56.83 1.19 1.19 4.87 2.97 3.56 1.74 4.71 3.05 4.71 5.39 0 3.37-2.61 5.39-6.88 5.39-1.42 0-2.77-.2-3.88-.59-.79-.32-1.34-.6-2.69-1.43l1.35-2.57c1.18.87 1.7 1.19 2.45 1.5.96.4 2.06.63 3.13.63 2.22 0 3.52-.95 3.52-2.53 0-1.27-.63-2.1-2.14-2.81l-3.45-1.66c-2.89-1.39-4.18-2.97-4.18-4.99 0-3.13 2.69-5.15 6.88-5.15 1.22 0 2.46.15 3.52.47.87.24 1.35.48 2.53 1.11zm6.97 15.17V25.62h11.71v2.49h-8.7v5.46h7.2v2.5h-7.2v5.98h8.94v2.49H318.8zm29.14-15.17c-.99-.67-1.43-.83-2.38-1.15-.99-.28-1.82-.4-2.65-.4-2.41 0-3.88.87-3.88 2.34 0 .4.08.75.24.99.55.83 1.18 1.19 4.87 2.97 3.56 1.74 4.71 3.05 4.71 5.39 0 3.37-2.62 5.39-6.89 5.39-1.43 0-2.77-.2-3.88-.59-.78-.32-1.34-.6-2.69-1.43l1.35-2.57c1.19.87 1.71 1.19 2.46 1.5.95.4 2.06.63 3.13.63 2.21 0 3.52-.95 3.52-2.53 0-1.27-.63-2.1-2.14-2.81l-3.44-1.66c-2.89-1.39-4.2-2.97-4.2-4.99 0-3.13 2.69-5.15 6.89-5.15 1.23 0 2.45.15 3.52.47.87.24 1.35.48 2.54 1.11zm8.52 15.65c-1.27 0-2.27-.99-2.27-2.26 0-1.23.99-2.23 2.27-2.23 1.22 0 2.21 1 2.21 2.23 0 1.26-.99 2.26-2.21 2.26zm22.68-15.65c-.87-.63-1.22-.87-1.9-1.11-.83-.28-1.98-.47-3.09-.47-4.27 0-7.24 2.89-7.24 7.05 0 2.22.83 4.2 2.25 5.63 1.43 1.38 3.17 1.97 5.94 1.97 1.78 0 2.62-.2 4.19-.99l.88 2.22c-2.14.87-3.81 1.23-5.66 1.23-6.33 0-10.76-4.07-10.76-9.9 0-5.54 4.51-9.75 10.48-9.75 2.42 0 4.28.55 6.34 1.82zm15.52 15.52c-6.09 0-10.48-4.12-10.48-9.82 0-5.67 4.39-9.82 10.48-9.82 6.06 0 10.49 4.16 10.49 9.82 0 5.7-4.43 9.82-10.49 9.82zm0-17.11c-4.16 0-7.32 3.13-7.32 7.29s3.17 7.33 7.32 7.33c4.16 0 7.29-3.17 7.29-7.33s-3.13-7.29-7.29-7.29zm33.38 16.76V29.47c-.23.99-.35 1.26-.75 2.22l-5.82 12.87h-2.38l-5.22-12.08c-.48-1.07-.59-1.42-.75-2.49v14.58h-3.01V25.62h3.84l6.13 13.99c.24.59.24.71.36 1.5.12-.59.16-.75.4-1.5l6.37-13.99H431v18.94z"/><path fill="#747333" d="M66.94 33.5C66.94 52 51.96 67 33.47 67 14.99 67 0 52 0 33.5S14.99 0 33.47 0c18.49 0 33.47 15 33.47 33.5z"/><g fill="#fff"><path d="M21.49 23.63c0-6.61 5.45-11.97 12.18-11.97 3.98 0 7.5 1.88 9.72 4.78l2.41-4.11c-3.38-1.84-7.61-2.94-12.21-2.94-11.03 0-19.13 7.11-19.48 16.85v12.87h7.4z"/><path d="M53.21 22.88c-3.24 0-6.1-.02-9.34 0-2.45.02-4.91.06-7.36.16-2.72.11-5.91.43-7.54 2.95-1.39 2.16-1.56 5.19-.57 7.55 1.09 2.59 3.57 3.94 6.1 4.8 1.72.58 3.66.55 5.45.61 2.11.08 4.15.13 6.27.06-.09 2.23 0 4.38-.37 6.6-.48 2.94-1.85 5.86-4.25 7.76-2.68 2.13-6.16 2.25-9.4 1.79-1.63-.23-3.17-.81-4.55-1.7-1.19-.77-2.5-1.73-3.34-2.89-.78 1.34-1.55 2.69-2.33 4.03 6.46 3.6 15.2 4.03 21.96.95 5.73-2.61 9.21-7.96 9.59-14.22.19-3.07.03-6.18.03-9.26v-9.22c-.11.02-.23.02-.35.03M42.69 36.82c-.8-.04-1.59-.1-2.39-.23-1.77-.27-3.22-1-4.19-2.59-.87-1.43-1-5.14-.09-6.58.9-1.47 2.34-2.14 4.05-2.21 1.61-.07 3.26-.07 4.87-.05.41.01.77.02 1.19.02.15 0 .12.28.12.38v10.99c0 .33.01.26-.4.27z"/></g><path d="m98.66 62.67-2.5-9.2h-.03l-2.53 9.2h-1.52l-2.8-10.95h1.49l2.15 9.11h.03l2.45-9.11h1.58l2.42 9.11h.03l2.22-9.11h1.46l-2.93 10.95zm4.55-5.59c.16-.51.41-.95.74-1.32s.73-.67 1.21-.88 1.03-.32 1.66-.32 1.19.11 1.66.32c.48.21.88.51 1.2.88.33.37.57.81.74 1.32.16.51.25 1.05.25 1.63s-.08 1.12-.25 1.63a3.498 3.498 0 0 1-1.94 2.18c-.47.21-1.03.31-1.66.31-.62 0-1.17-.1-1.66-.31-.48-.21-.88-.5-1.21-.87a3.75 3.75 0 0 1-.74-1.31c-.16-.5-.25-1.04-.25-1.63.01-.58.09-1.12.25-1.63zm1.33 2.92c.13.37.3.69.53.94.22.25.49.44.79.58a2.392 2.392 0 0 0 1.92 0c.3-.13.56-.32.79-.58.22-.25.4-.56.53-.94.13-.37.19-.8.19-1.28s-.06-.91-.19-1.28-.3-.69-.53-.94c-.22-.26-.49-.45-.79-.58a2.392 2.392 0 0 0-1.92 0c-.3.13-.56.33-.79.58-.22.26-.4.57-.53.94s-.19.8-.19 1.28.06.9.19 1.28zm8.83-5.26v1.67h.03c.32-.64.7-1.12 1.16-1.43s1.04-.45 1.75-.43v1.38c-.52 0-.97.07-1.33.21-.37.14-.66.35-.89.63-.22.28-.39.61-.49 1s-.15.85-.15 1.36v3.53h-1.3v-7.93h1.22zm5.3-3.02v10.95h-1.3V51.72zm7.8 10.95V61.6h-.03c-.21.44-.55.76-1.01.95s-.97.29-1.52.29c-.61 0-1.15-.11-1.6-.34s-.83-.53-1.13-.91-.53-.82-.68-1.32-.23-1.03-.23-1.6c0-.56.07-1.09.22-1.6.15-.5.37-.94.67-1.31s.68-.67 1.13-.89.98-.33 1.59-.33c.2 0 .42.02.66.06.23.04.47.11.7.21s.46.23.67.38c.21.16.39.36.53.59h.03V51.7h1.3v10.95h-1.3zm-4.68-2.81c.1.35.25.67.44.94.2.28.45.5.77.66.31.16.68.25 1.1.25.44 0 .81-.09 1.12-.26s.56-.4.75-.68.33-.6.42-.96.13-.72.13-1.09c0-.39-.05-.76-.14-1.13-.09-.36-.24-.68-.44-.96s-.46-.5-.77-.67c-.32-.17-.7-.25-1.15-.25-.44 0-.81.09-1.12.26s-.55.4-.74.69c-.18.29-.32.61-.4.98s-.12.75-.12 1.14c.01.37.05.73.15 1.08zm9.99-8.14v1.7c0 .31-.03.6-.1.87s-.17.51-.31.71-.31.37-.52.49a1.5 1.5 0 0 1-.76.18v-.77c.17 0 .32-.04.43-.13s.2-.2.28-.34c.07-.14.12-.3.15-.48s.04-.35.04-.53h-.9v-1.7zm2.13 9.18c.12.2.28.36.48.48s.42.2.67.25.51.08.77.08c.2 0 .42-.02.64-.05s.43-.09.62-.17.34-.2.47-.36c.12-.16.18-.36.18-.61 0-.34-.13-.59-.38-.77-.26-.17-.57-.31-.96-.42-.38-.11-.8-.2-1.25-.29s-.87-.21-1.25-.37-.7-.38-.96-.67-.38-.69-.38-1.2c0-.4.09-.74.27-1.03s.41-.52.69-.7.6-.31.95-.4.7-.13 1.05-.13c.45 0 .86.04 1.24.11.38.08.71.21 1 .4s.52.45.7.77c.17.32.28.72.31 1.2h-1.3c-.02-.26-.09-.47-.2-.64s-.26-.3-.43-.41c-.17-.1-.37-.18-.57-.22a2.73 2.73 0 0 0-.64-.07c-.19 0-.39.02-.59.05s-.38.08-.54.16-.3.18-.4.31-.15.29-.15.5c0 .23.08.41.24.56s.36.27.61.37.52.18.83.25l.92.21c.33.07.65.16.96.26s.59.24.83.41.43.38.58.64.22.57.22.95c0 .48-.1.88-.3 1.2s-.46.57-.78.77c-.32.19-.68.33-1.09.41-.4.08-.8.11-1.2.11-.44 0-.86-.05-1.26-.14s-.75-.24-1.06-.45-.55-.49-.74-.83c-.18-.34-.29-.76-.31-1.25h1.3c.02.29.08.53.21.73zm12.59-9.18v9.72h5.79v1.23h-7.25V51.72zm12.94 11.12c-.34 0-.61-.09-.8-.28-.2-.19-.3-.5-.3-.93-.36.43-.77.74-1.25.93-.47.19-.99.28-1.54.28-.36 0-.69-.04-1.01-.11-.32-.08-.6-.2-.84-.38s-.43-.41-.57-.69-.21-.62-.21-1.02c0-.45.08-.82.23-1.1.15-.29.35-.52.61-.7.25-.18.54-.31.86-.41.32-.09.65-.17.99-.23.36-.07.7-.13 1.02-.16.32-.04.61-.09.85-.15s.44-.16.58-.29.21-.31.21-.56c0-.29-.05-.52-.16-.69s-.25-.31-.41-.4c-.17-.09-.36-.15-.57-.18s-.42-.05-.62-.05c-.55 0-1.01.11-1.38.31-.37.21-.57.61-.6 1.19h-1.3c.02-.49.12-.91.31-1.24.18-.34.43-.61.74-.82s.66-.36 1.06-.45.82-.14 1.26-.14c.36 0 .71.03 1.07.08.35.05.67.16.96.31.29.16.52.38.69.67s.26.66.26 1.12v4.08c0 .31.02.53.05.67.04.14.16.21.36.21.11 0 .25-.03.4-.08v1.01c-.24.14-.56.2-.95.2zm-1.83-3.99c-.27.06-.54.1-.84.14l-.88.12c-.3.05-.56.12-.8.22s-.43.25-.57.44c-.15.19-.22.45-.22.77 0 .21.04.4.13.54.09.15.2.27.34.36s.3.16.49.2.38.06.57.06c.43 0 .8-.06 1.1-.18.31-.12.56-.27.75-.44.19-.18.34-.37.43-.58s.14-.41.14-.59v-1.33c-.16.12-.37.21-.64.27zm5.15-4.11v1.67h.03c.32-.64.7-1.12 1.16-1.43s1.04-.45 1.75-.43v1.38c-.52 0-.97.07-1.33.21-.37.14-.66.35-.89.63-.22.28-.39.61-.49 1s-.15.85-.15 1.36v3.53h-1.3v-7.93h1.22zm9.44 10.17c-.59.64-1.52.97-2.79.97-.37 0-.74-.04-1.13-.12-.38-.08-.73-.21-1.04-.4-.31-.18-.57-.42-.77-.72a2.1 2.1 0 0 1-.34-1.09h1.3c.01.23.08.43.22.6.14.16.31.3.51.4s.42.18.65.22c.23.05.46.07.67.07.43 0 .79-.07 1.09-.22s.54-.35.74-.61c.19-.26.33-.57.42-.94s.13-.77.13-1.21v-.52h-.03c-.22.49-.56.85-1.02 1.08-.45.23-.94.34-1.45.34-.59 0-1.11-.11-1.55-.32s-.81-.5-1.1-.87c-.3-.36-.52-.79-.67-1.27-.15-.49-.22-1-.22-1.54 0-.47.06-.95.18-1.45s.33-.95.61-1.35c.29-.4.66-.74 1.13-1s1.05-.39 1.73-.39c.5 0 .96.11 1.38.33s.75.55.98.99h.01v-1.14h1.23V62c.02 1.3-.28 2.27-.87 2.91zm-1.66-3.56c.3-.18.54-.41.73-.71.18-.29.32-.62.41-.99s.13-.74.13-1.1c0-.35-.04-.69-.12-1.03s-.21-.64-.39-.91-.41-.49-.7-.65-.63-.25-1.04-.25c-.42 0-.78.08-1.07.24-.3.16-.54.37-.73.64s-.33.57-.41.92c-.09.35-.13.71-.13 1.09 0 .36.04.72.11 1.07.07.36.19.68.37.97.17.29.4.53.69.71s.64.27 1.07.27c.41-.01.78-.09 1.08-.27zm10.12.82c-.59.45-1.34.67-2.24.67-.63 0-1.18-.1-1.65-.31-.46-.2-.86-.49-1.17-.86a3.65 3.65 0 0 1-.71-1.32c-.16-.51-.25-1.07-.27-1.67 0-.6.09-1.16.28-1.66.18-.5.44-.94.77-1.3.33-.37.73-.65 1.18-.86s.95-.31 1.49-.31c.7 0 1.29.15 1.75.44s.84.66 1.12 1.11.48.94.58 1.47c.11.53.15 1.04.13 1.52H176c-.01.35.03.68.12.99s.24.59.44.83.46.43.78.58c.32.14.69.21 1.12.21.55 0 1-.13 1.36-.38.35-.26.58-.64.7-1.17h1.29c-.17.9-.56 1.57-1.15 2.02zm-.31-5.1a2.294 2.294 0 0 0-1.18-1.19c-.27-.12-.57-.18-.9-.18a2.206 2.206 0 0 0-1.61.66c-.19.21-.35.44-.46.71s-.18.56-.2.87h4.55c-.02-.3-.09-.59-.2-.87zm3.93 3.83c.12.2.28.36.48.48s.42.2.67.25.51.08.77.08c.2 0 .42-.02.64-.05s.43-.09.62-.17.34-.2.47-.36c.12-.16.18-.36.18-.61 0-.34-.13-.59-.38-.77-.26-.17-.57-.31-.96-.42-.38-.11-.8-.2-1.25-.29s-.87-.21-1.25-.37-.7-.38-.96-.67-.38-.69-.38-1.2c0-.4.09-.74.27-1.03s.41-.52.69-.7.6-.31.95-.4.7-.13 1.05-.13c.45 0 .86.04 1.24.11.38.08.71.21 1 .4s.52.45.7.77c.17.32.28.72.31 1.2h-1.3c-.02-.26-.09-.47-.2-.64s-.26-.3-.43-.41c-.17-.1-.37-.18-.57-.22a2.73 2.73 0 0 0-.64-.07c-.19 0-.39.02-.59.05s-.38.08-.54.16-.3.18-.4.31-.15.29-.15.5c0 .23.08.41.24.56s.36.27.61.37.52.18.83.25l.92.21c.33.07.65.16.96.26s.59.24.83.41.43.38.58.64.22.57.22.95c0 .48-.1.88-.3 1.2s-.46.57-.78.77c-.32.19-.68.33-1.09.41-.4.08-.8.11-1.2.11-.44 0-.86-.05-1.26-.14s-.75-.24-1.06-.45-.55-.49-.74-.83c-.18-.34-.29-.76-.31-1.25h1.3c.02.29.08.53.21.73zm10.05-6.16v1.15h-1.58v4.92c0 .15.01.28.04.37s.07.16.15.21c.07.05.17.08.3.1s.29.02.5.02h.6v1.15h-1c-.34 0-.63-.02-.87-.07s-.43-.13-.58-.25-.26-.3-.33-.52-.11-.52-.11-.89v-5.05h-1.35v-1.15h1.35v-2.38h1.3v2.38h1.58zm9.67-3.02c1.69 0 2.98.43 3.89 1.29s1.36 2.17 1.36 3.93c0 .92-.1 1.74-.31 2.45-.2.71-.52 1.31-.95 1.79-.43.49-.98.86-1.64 1.11-.66.26-1.45.38-2.36.38h-3.75V51.72zm.12 9.73c.16 0 .37-.01.61-.04.25-.03.51-.09.78-.18.28-.1.55-.24.82-.42s.51-.43.73-.75c.21-.32.39-.71.53-1.19s.21-1.05.21-1.73c0-.65-.06-1.24-.19-1.76s-.34-.96-.63-1.32a2.8 2.8 0 0 0-1.13-.83c-.46-.19-1.03-.28-1.7-.28h-2.45v8.5zm12.31.72c-.59.45-1.34.67-2.24.67-.63 0-1.18-.1-1.65-.31-.47-.2-.86-.49-1.17-.86a3.65 3.65 0 0 1-.71-1.32c-.16-.51-.25-1.07-.27-1.67 0-.6.09-1.16.28-1.66.18-.5.44-.94.77-1.3.33-.37.72-.65 1.18-.86.45-.2.95-.31 1.49-.31.71 0 1.29.15 1.75.44s.84.66 1.12 1.11.48.94.58 1.47c.11.53.15 1.04.13 1.52h-5.93c-.01.35.03.68.12.99s.24.59.44.83.46.43.78.58c.32.14.69.21 1.12.21.55 0 1-.13 1.36-.38.35-.26.59-.64.7-1.17h1.29c-.17.9-.55 1.57-1.14 2.02zm-.32-5.1c-.12-.28-.28-.51-.47-.71s-.43-.36-.71-.48c-.27-.12-.57-.18-.9-.18a2.206 2.206 0 0 0-1.61.66c-.19.21-.35.44-.46.71s-.18.56-.2.87h4.55a2.4 2.4 0 0 0-.2-.87zm3.93 3.83c.12.2.28.36.48.48s.42.2.67.25.51.08.77.08c.2 0 .42-.02.64-.05s.43-.09.62-.17.34-.2.47-.36c.12-.16.18-.36.18-.61 0-.34-.13-.59-.38-.77-.26-.17-.57-.31-.96-.42-.38-.11-.8-.2-1.25-.29s-.87-.21-1.25-.37-.7-.38-.96-.67-.38-.69-.38-1.2c0-.4.09-.74.27-1.03s.41-.52.69-.7.6-.31.95-.4.7-.13 1.05-.13c.45 0 .86.04 1.24.11.38.08.71.21 1 .4s.52.45.7.77c.17.32.28.72.31 1.2h-1.3c-.02-.26-.09-.47-.2-.64s-.26-.3-.43-.41c-.17-.1-.37-.18-.57-.22a2.73 2.73 0 0 0-.64-.07c-.19 0-.39.02-.59.05s-.38.08-.54.16-.3.18-.4.31-.15.29-.15.5c0 .23.08.41.24.56s.36.27.61.37.52.18.83.25l.92.21c.33.07.65.16.96.26s.59.24.83.41.43.38.58.64.22.57.22.95c0 .48-.1.88-.3 1.2s-.46.57-.78.77c-.32.19-.68.33-1.09.41-.4.08-.8.11-1.2.11-.44 0-.86-.05-1.26-.14s-.75-.24-1.06-.45-.55-.49-.74-.83c-.18-.34-.29-.76-.31-1.25h1.3c.02.29.09.53.21.73zm6.75-7.58v-1.6h1.3v1.6zm1.3 1.42v7.93h-1.3v-7.93zm7.97 10.17c-.59.64-1.52.97-2.79.97-.37 0-.74-.04-1.13-.12-.38-.08-.73-.21-1.04-.4-.31-.18-.57-.42-.77-.72a2.1 2.1 0 0 1-.34-1.09h1.3c.01.23.08.43.22.6.14.16.31.3.51.4s.42.18.65.22c.24.05.46.07.67.07.43 0 .79-.07 1.09-.22s.54-.35.74-.61c.19-.26.33-.57.42-.94s.13-.77.13-1.21v-.52h-.03c-.22.49-.56.85-1.02 1.08s-.94.34-1.45.34c-.59 0-1.11-.11-1.55-.32s-.81-.5-1.1-.87c-.3-.36-.52-.79-.67-1.27-.15-.49-.22-1-.22-1.54 0-.47.06-.95.18-1.45s.33-.95.61-1.35c.29-.4.66-.74 1.13-1s1.05-.39 1.73-.39c.5 0 .96.11 1.38.33s.75.55.98.99h.02v-1.14h1.23V62c.01 1.3-.29 2.27-.88 2.91zm-1.67-3.56c.3-.18.54-.41.73-.71.18-.29.32-.62.41-.99s.13-.74.13-1.1c0-.35-.04-.69-.12-1.03s-.21-.64-.39-.91-.41-.49-.7-.65-.63-.25-1.04-.25c-.42 0-.78.08-1.07.24-.3.16-.54.37-.73.64s-.33.57-.41.92c-.09.35-.13.71-.13 1.09 0 .36.04.72.11 1.07.07.36.19.68.37.97.17.29.4.53.69.71s.64.27 1.07.27c.42-.01.78-.09 1.08-.27zm5.74-6.61V56h.03c.54-.96 1.4-1.44 2.57-1.44.52 0 .96.07 1.3.21.35.14.63.34.84.6s.36.56.45.91.13.74.13 1.17v5.21h-1.3V57.3c0-.49-.14-.88-.43-1.17s-.68-.43-1.18-.43c-.4 0-.74.06-1.03.18s-.53.3-.73.52c-.19.22-.34.49-.44.79s-.15.63-.15.99v4.48h-1.3v-7.93h1.24zm12.91 7.43c-.59.45-1.34.67-2.24.67-.63 0-1.18-.1-1.65-.31-.47-.2-.86-.49-1.17-.86a3.65 3.65 0 0 1-.71-1.32c-.16-.51-.25-1.07-.27-1.67 0-.6.09-1.16.28-1.66.18-.5.44-.94.77-1.3.33-.37.73-.65 1.18-.86s.95-.31 1.49-.31c.71 0 1.29.15 1.75.44s.84.66 1.12 1.11.48.94.58 1.47c.11.53.15 1.04.13 1.52h-5.93c-.01.35.03.68.12.99s.24.59.44.83.46.43.78.58c.32.14.69.21 1.12.21.55 0 1-.13 1.36-.38.35-.26.59-.64.7-1.17h1.29c-.17.9-.55 1.57-1.14 2.02zm-.32-5.1c-.12-.28-.28-.51-.47-.71s-.43-.36-.71-.48c-.27-.12-.57-.18-.9-.18a2.206 2.206 0 0 0-1.61.66c-.19.21-.35.44-.46.71s-.18.56-.2.87h4.55a2.4 2.4 0 0 0-.2-.87zm4.12-2.33v1.67h.03c.32-.64.7-1.12 1.16-1.43s1.04-.45 1.75-.43v1.38c-.52 0-.97.07-1.33.21-.37.14-.66.35-.89.63-.22.28-.39.61-.49 1s-.15.85-.15 1.36v3.53h-1.3v-7.93h1.22zm13.54-3.02c1.04 0 1.86.26 2.44.77.59.51.88 1.21.88 2.1 0 .67-.15 1.25-.45 1.75s-.78.84-1.45 1.03v.03c.32.06.57.16.77.31.2.14.36.31.48.51s.2.42.26.67.1.5.13.77c.02.27.04.54.05.81.01.28.04.55.08.81.04.27.1.52.18.76s.19.45.34.64h-1.62a.982.982 0 0 1-.21-.46c-.04-.19-.06-.41-.07-.65l-.03-.77c-.01-.28-.04-.55-.09-.81-.04-.27-.09-.52-.15-.76s-.16-.45-.29-.63-.31-.32-.52-.43-.5-.16-.86-.16h-3.56v4.68h-1.46V51.72zm.31 4.97c.31-.05.57-.15.8-.3s.41-.35.55-.6.21-.58.21-.97c0-.55-.15-1-.46-1.35s-.8-.52-1.49-.52h-3.62v3.82h3.03c.35 0 .67-.03.98-.08zm10.44 5.48c-.59.45-1.34.67-2.24.67-.63 0-1.18-.1-1.65-.31-.47-.2-.86-.49-1.17-.86a3.65 3.65 0 0 1-.71-1.32c-.16-.51-.25-1.07-.27-1.67 0-.6.09-1.16.28-1.66.18-.5.44-.94.77-1.3.33-.37.73-.65 1.18-.86s.95-.31 1.49-.31c.71 0 1.29.15 1.75.44s.84.66 1.12 1.11.48.94.58 1.47c.11.53.15 1.04.13 1.52h-5.93c-.01.35.03.68.12.99s.24.59.44.83.46.43.78.58c.32.14.69.21 1.12.21.55 0 1-.13 1.36-.38.35-.26.59-.64.7-1.17h1.29c-.17.9-.55 1.57-1.14 2.02zm-.32-5.1c-.12-.28-.28-.51-.47-.71s-.43-.36-.71-.48c-.27-.12-.57-.18-.9-.18a2.206 2.206 0 0 0-1.61.66c-.19.21-.35.44-.46.71s-.18.56-.2.87h4.55a2.4 2.4 0 0 0-.2-.87zm9.02 5.77c-.34 0-.61-.09-.8-.28-.2-.19-.3-.5-.3-.93-.36.43-.77.74-1.25.93s-.99.28-1.54.28c-.36 0-.69-.04-1.01-.11-.32-.08-.6-.2-.84-.38s-.43-.41-.57-.69-.21-.62-.21-1.02c0-.45.08-.82.23-1.1.15-.29.35-.52.61-.7.25-.18.54-.31.86-.41.32-.09.65-.17.99-.23.36-.07.7-.13 1.02-.16.32-.04.61-.09.85-.15.25-.07.44-.16.58-.29s.21-.31.21-.56c0-.29-.05-.52-.16-.69s-.25-.31-.41-.4c-.17-.09-.36-.15-.57-.18s-.42-.05-.62-.05c-.55 0-1.01.11-1.38.31-.37.21-.57.61-.6 1.19h-1.3c.02-.49.12-.91.31-1.24.18-.34.43-.61.74-.82s.66-.36 1.06-.45.82-.14 1.26-.14c.36 0 .71.03 1.07.08.35.05.67.16.96.31.29.16.52.38.69.67s.26.66.26 1.12v4.08c0 .31.02.53.05.67.04.14.16.21.36.21.11 0 .25-.03.4-.08v1.01c-.24.14-.55.2-.95.2zm-1.82-3.99c-.27.06-.54.1-.84.14l-.88.12c-.3.05-.56.12-.8.22s-.43.25-.57.44c-.15.19-.22.45-.22.77 0 .21.04.4.13.54.09.15.2.27.34.36s.3.16.49.2.38.06.57.06c.43 0 .8-.06 1.1-.18.31-.12.56-.27.75-.44.19-.18.34-.37.43-.58s.14-.41.14-.59v-1.33c-.16.12-.38.21-.64.27zm9.74 3.82V61.6h-.03c-.21.44-.55.76-1.01.95s-.97.29-1.52.29c-.61 0-1.15-.11-1.6-.34s-.83-.53-1.13-.91-.53-.82-.68-1.32-.23-1.03-.23-1.6c0-.56.07-1.09.22-1.6.15-.5.37-.94.67-1.31s.68-.67 1.13-.89.98-.33 1.59-.33c.2 0 .42.02.66.06.23.04.47.11.7.21.24.1.46.23.67.38.21.16.39.36.53.59h.03V51.7h1.3v10.95h-1.3zm-4.68-2.81c.1.35.25.67.44.94.2.28.45.5.77.66.31.16.68.25 1.1.25.44 0 .81-.09 1.12-.26s.56-.4.75-.68.33-.6.42-.96.13-.72.13-1.09c0-.39-.05-.76-.14-1.13-.09-.36-.24-.68-.44-.96s-.46-.5-.77-.67c-.32-.17-.7-.25-1.15-.25-.44 0-.81.09-1.12.26s-.55.4-.74.69c-.18.29-.32.61-.4.98s-.12.75-.12 1.14c.01.37.05.73.15 1.08zm8.07-6.54v-1.6h1.3v1.6zm1.3 1.42v7.93h-1.3v-7.93zm3.25 0V56h.03c.54-.96 1.4-1.44 2.57-1.44.52 0 .96.07 1.3.21.35.14.63.34.84.6s.36.56.45.91.13.74.13 1.17v5.21h-1.3V57.3c0-.49-.14-.88-.43-1.17s-.68-.43-1.18-.43c-.4 0-.74.06-1.03.18s-.53.3-.73.52c-.19.22-.34.49-.44.79s-.15.63-.15.99v4.48h-1.3v-7.93h1.24zm13.24 10.17c-.59.64-1.52.97-2.79.97-.37 0-.74-.04-1.13-.12-.38-.08-.73-.21-1.04-.4-.31-.18-.57-.42-.77-.72a2.1 2.1 0 0 1-.34-1.09h1.3c.01.23.08.43.22.6.14.16.31.3.51.4s.42.18.65.22c.24.05.46.07.67.07.43 0 .79-.07 1.09-.22s.54-.35.74-.61c.19-.26.33-.57.42-.94s.13-.77.13-1.21v-.52h-.03c-.22.49-.56.85-1.02 1.08s-.94.34-1.45.34c-.59 0-1.11-.11-1.55-.32s-.81-.5-1.1-.87c-.3-.36-.52-.79-.67-1.27-.15-.49-.22-1-.22-1.54 0-.47.06-.95.18-1.45s.33-.95.61-1.35c.29-.4.66-.74 1.13-1s1.05-.39 1.73-.39c.5 0 .96.11 1.38.33s.75.55.98.99h.02v-1.14h1.23V62c.01 1.3-.29 2.27-.88 2.91zm-1.66-3.56c.3-.18.54-.41.73-.71.18-.29.32-.62.41-.99s.13-.74.13-1.1c0-.35-.04-.69-.12-1.03s-.21-.64-.39-.91-.41-.49-.7-.65-.63-.25-1.04-.25c-.42 0-.78.08-1.07.24-.3.16-.54.37-.73.64s-.33.57-.41.92c-.09.35-.13.71-.13 1.09 0 .36.04.72.11 1.07.07.36.19.68.37.97.17.29.4.53.69.71s.64.27 1.07.27c.41-.01.78-.09 1.08-.27zm15.57 1.19c-.63.25-1.27.38-1.92.38-.82 0-1.55-.15-2.19-.45s-1.19-.71-1.64-1.22-.79-1.1-1.03-1.76-.35-1.35-.35-2.07c0-.8.11-1.56.33-2.28s.55-1.35.98-1.89.98-.97 1.62-1.3c.65-.32 1.41-.48 2.28-.48.59 0 1.15.07 1.68.21s1 .36 1.41.65c.41.3.76.67 1.04 1.13s.47 1 .57 1.65h-1.46c-.07-.42-.2-.78-.4-1.08-.19-.3-.43-.55-.72-.74a3.43 3.43 0 0 0-.97-.44c-.36-.1-.75-.15-1.16-.15-.66 0-1.23.13-1.71.4s-.86.62-1.16 1.05-.52.93-.67 1.49c-.14.56-.21 1.13-.21 1.71 0 .57.08 1.12.25 1.65.16.53.4.99.72 1.4.32.4.71.73 1.17.97s1 .36 1.62.36c.57 0 1.08-.09 1.52-.28a3.121 3.121 0 0 0 1.79-1.9c.15-.43.22-.9.2-1.4h-3.49v-1.23h4.8v5.77h-.92l-.38-1.36c-.43.55-.96.96-1.6 1.21zm6.21-10.82v10.95h-1.3V51.72zm8.11 11.12c-.34 0-.61-.09-.8-.28-.2-.19-.3-.5-.3-.93-.36.43-.77.74-1.25.93s-.99.28-1.54.28c-.36 0-.69-.04-1.01-.11-.32-.08-.6-.2-.84-.38s-.43-.41-.57-.69-.21-.62-.21-1.02c0-.45.08-.82.23-1.1.15-.29.35-.52.61-.7.25-.18.54-.31.86-.41.32-.09.65-.17.99-.23.36-.07.7-.13 1.02-.16.32-.04.61-.09.85-.15.25-.07.44-.16.58-.29s.21-.31.21-.56c0-.29-.05-.52-.16-.69s-.25-.31-.41-.4c-.17-.09-.36-.15-.57-.18s-.42-.05-.62-.05c-.55 0-1.01.11-1.38.31-.37.21-.57.61-.6 1.19h-1.3c.02-.49.12-.91.31-1.24.18-.34.43-.61.74-.82s.66-.36 1.06-.45.82-.14 1.26-.14c.36 0 .71.03 1.07.08.35.05.67.16.96.31.29.16.52.38.69.67s.26.66.26 1.12v4.08c0 .31.02.53.05.67.04.14.16.21.36.21.11 0 .25-.03.4-.08v1.01c-.24.14-.55.2-.95.2zm-1.83-3.99c-.27.06-.54.1-.84.14l-.88.12c-.3.05-.56.12-.8.22s-.43.25-.57.44c-.15.19-.22.45-.22.77 0 .21.04.4.13.54.09.15.2.27.34.36s.3.16.49.2.38.06.57.06c.43 0 .8-.06 1.1-.18.31-.12.56-.27.75-.44.19-.18.34-.37.43-.58s.14-.41.14-.59v-1.33c-.16.12-.37.21-.64.27zm4.97 2.05c.12.2.28.36.48.48s.42.2.67.25.51.08.77.08c.2 0 .42-.02.64-.05s.43-.09.62-.17.34-.2.47-.36c.12-.16.18-.36.18-.61 0-.34-.13-.59-.38-.77-.26-.17-.57-.31-.96-.42-.38-.11-.8-.2-1.25-.29s-.87-.21-1.25-.37-.7-.38-.96-.67-.38-.69-.38-1.2c0-.4.09-.74.27-1.03s.41-.52.69-.7.6-.31.95-.4.7-.13 1.05-.13c.45 0 .86.04 1.24.11.38.08.71.21 1 .4s.52.45.7.77c.17.32.28.72.31 1.2h-1.3c-.02-.26-.09-.47-.2-.64s-.26-.3-.43-.41c-.17-.1-.37-.18-.57-.22a2.73 2.73 0 0 0-.64-.07c-.19 0-.39.02-.59.05s-.38.08-.54.16-.3.18-.4.31-.15.29-.15.5c0 .23.08.41.24.56s.36.27.61.37.52.18.83.25l.92.21c.33.07.65.16.96.26s.59.24.83.41.43.38.58.64.22.57.22.95c0 .48-.1.88-.3 1.2s-.46.57-.78.77c-.32.19-.68.33-1.09.41-.4.08-.8.11-1.2.11-.44 0-.86-.05-1.26-.14s-.75-.24-1.06-.45-.55-.49-.74-.83c-.18-.34-.29-.76-.31-1.25h1.3c.02.29.09.53.21.73zm7.66 0c.12.2.28.36.48.48s.42.2.67.25.51.08.77.08c.2 0 .42-.02.64-.05s.43-.09.62-.17.34-.2.47-.36c.12-.16.18-.36.18-.61 0-.34-.13-.59-.38-.77-.26-.17-.57-.31-.96-.42-.38-.11-.8-.2-1.25-.29s-.87-.21-1.25-.37-.7-.38-.96-.67-.38-.69-.38-1.2c0-.4.09-.74.27-1.03s.41-.52.69-.7.6-.31.95-.4.7-.13 1.05-.13c.45 0 .86.04 1.24.11.38.08.71.21 1 .4s.52.45.7.77c.17.32.28.72.31 1.2h-1.3c-.02-.26-.09-.47-.2-.64s-.26-.3-.43-.41c-.17-.1-.37-.18-.57-.22a2.73 2.73 0 0 0-.64-.07c-.19 0-.39.02-.59.05s-.38.08-.54.16-.3.18-.4.31-.15.29-.15.5c0 .23.08.41.24.56s.36.27.61.37.52.18.83.25l.92.21c.33.07.65.16.96.26s.59.24.83.41.43.38.58.64.22.57.22.95c0 .48-.1.88-.3 1.2s-.46.57-.78.77c-.32.19-.68.33-1.09.41-.4.08-.8.11-1.2.11-.44 0-.86-.05-1.26-.14s-.75-.24-1.06-.45-.55-.49-.74-.83c-.18-.34-.29-.76-.31-1.25h1.3c.02.29.09.53.21.73zm12.28 1.27c-.59.45-1.34.67-2.24.67-.63 0-1.18-.1-1.65-.31-.47-.2-.86-.49-1.17-.86a3.65 3.65 0 0 1-.71-1.32c-.16-.51-.25-1.07-.27-1.67 0-.6.09-1.16.28-1.66.18-.5.44-.94.77-1.3.33-.37.73-.65 1.18-.86.45-.2.95-.31 1.49-.31.71 0 1.29.15 1.75.44s.84.66 1.12 1.11.48.94.58 1.47c.11.53.15 1.04.13 1.52h-5.93c-.01.35.03.68.12.99s.24.59.44.83.46.43.78.58c.32.14.69.21 1.12.21.55 0 1-.13 1.36-.38.35-.26.59-.64.7-1.17h1.29c-.17.9-.55 1.57-1.14 2.02zm-.32-5.1c-.12-.28-.28-.51-.47-.71s-.43-.36-.71-.48c-.27-.12-.57-.18-.9-.18a2.206 2.206 0 0 0-1.61.66c-.19.21-.35.44-.46.71s-.18.56-.2.87h4.55a2.4 2.4 0 0 0-.2-.87zm3.93 3.83c.12.2.28.36.48.48s.42.2.67.25.51.08.77.08c.2 0 .42-.02.64-.05s.43-.09.62-.17.34-.2.47-.36c.12-.16.18-.36.18-.61 0-.34-.13-.59-.38-.77-.26-.17-.57-.31-.96-.42-.38-.11-.8-.2-1.25-.29s-.87-.21-1.25-.37-.7-.38-.96-.67-.38-.69-.38-1.2c0-.4.09-.74.27-1.03s.41-.52.69-.7.6-.31.95-.4.7-.13 1.05-.13c.45 0 .86.04 1.24.11.38.08.71.21 1 .4s.52.45.7.77c.17.32.28.72.31 1.2h-1.3c-.02-.26-.09-.47-.2-.64s-.26-.3-.43-.41c-.17-.1-.37-.18-.57-.22a2.73 2.73 0 0 0-.64-.07c-.19 0-.39.02-.59.05s-.38.08-.54.16-.3.18-.4.31-.15.29-.15.5c0 .23.08.41.24.56s.36.27.61.37.52.18.83.25l.92.21c.33.07.65.16.96.26s.59.24.83.41.43.38.58.64.22.57.22.95c0 .48-.1.88-.3 1.2s-.46.57-.78.77c-.32.19-.68.33-1.09.41-.4.08-.8.11-1.2.11-.44 0-.86-.05-1.26-.14s-.75-.24-1.06-.45-.55-.49-.74-.83c-.18-.34-.29-.76-.31-1.25h1.3c.02.29.09.53.21.73zm16.62-7.68c-.48-.35-1.11-.53-1.86-.53-.31 0-.61.03-.9.09-.3.06-.56.16-.79.31-.23.14-.41.34-.55.58s-.21.54-.21.9c0 .34.1.61.3.82s.46.38.8.51c.33.13.71.24 1.13.33s.85.18 1.28.28.86.22 1.28.36.79.32 1.13.56c.33.24.6.53.8.89s.3.81.3 1.35c0 .58-.13 1.08-.39 1.5-.26.41-.6.75-1 1.01-.41.26-.87.45-1.37.57a6.555 6.555 0 0 1-3.25-.05c-.55-.15-1.03-.39-1.44-.7s-.74-.71-.98-1.2-.36-1.06-.36-1.73h1.38c0 .46.09.86.27 1.19s.41.61.7.82.63.37 1.02.48c.39.1.79.15 1.2.15.33 0 .66-.03.99-.09s.63-.17.9-.31c.27-.15.48-.35.64-.61s.25-.58.25-.98c0-.38-.1-.69-.3-.92-.2-.24-.46-.43-.8-.58-.33-.15-.71-.27-1.13-.36s-.85-.19-1.28-.28c-.43-.1-.86-.21-1.28-.34s-.79-.3-1.13-.51c-.33-.21-.6-.48-.8-.81s-.3-.75-.3-1.25c0-.55.11-1.03.34-1.43.22-.4.52-.74.9-1 .37-.26.8-.45 1.27-.58.48-.13.96-.19 1.46-.19.56 0 1.08.07 1.56.2s.9.34 1.26.63.65.65.86 1.08.32.95.34 1.56h-1.38c-.09-.8-.37-1.37-.86-1.72zm7.63 1.52v1.15h-1.58v4.92c0 .15.01.28.04.37s.07.16.15.21c.07.05.17.08.3.1s.29.02.5.02h.6v1.15h-1c-.34 0-.63-.02-.87-.07s-.43-.13-.58-.25-.26-.3-.33-.52-.11-.52-.11-.89v-5.05h-1.35v-1.15h1.35v-2.38h1.3v2.38h1.58zm1.25 2.34c.16-.51.41-.95.74-1.32s.73-.67 1.21-.88 1.03-.32 1.66-.32 1.19.11 1.66.32c.48.21.88.51 1.2.88.33.37.57.81.74 1.32.16.51.25 1.05.25 1.63s-.08 1.12-.25 1.63a3.498 3.498 0 0 1-1.94 2.18c-.48.21-1.03.31-1.66.31-.62 0-1.17-.1-1.66-.31-.48-.21-.88-.5-1.21-.87a3.75 3.75 0 0 1-.74-1.31c-.16-.5-.25-1.04-.25-1.63.01-.58.09-1.12.25-1.63zm1.33 2.92c.13.37.3.69.53.94.22.25.49.44.79.58a2.392 2.392 0 0 0 1.92 0c.3-.13.56-.32.79-.58.22-.25.4-.56.53-.94.13-.37.19-.8.19-1.28s-.06-.91-.19-1.28-.3-.69-.53-.94c-.23-.26-.49-.45-.79-.58a2.392 2.392 0 0 0-1.92 0c-.3.13-.56.33-.79.58-.23.26-.4.57-.53.94s-.19.8-.19 1.28.06.9.19 1.28zm8.83-5.26v1.67h.03c.32-.64.7-1.12 1.16-1.43s1.04-.45 1.75-.43v1.38c-.52 0-.97.07-1.33.21-.37.14-.66.35-.89.63-.22.28-.39.61-.49 1s-.15.85-.15 1.36v3.53h-1.3v-7.93h1.22zm9.26 7.43c-.59.45-1.34.67-2.24.67-.63 0-1.18-.1-1.65-.31-.47-.2-.86-.49-1.17-.86a3.65 3.65 0 0 1-.71-1.32c-.16-.51-.25-1.07-.27-1.67 0-.6.09-1.16.28-1.66.18-.5.44-.94.77-1.3.33-.37.73-.65 1.18-.86s.95-.31 1.49-.31c.71 0 1.29.15 1.75.44s.84.66 1.12 1.11.48.94.58 1.47c.11.53.15 1.04.13 1.52h-5.93c-.01.35.03.68.12.99s.24.59.44.83.46.43.78.58c.32.14.69.21 1.12.21.55 0 1-.13 1.36-.38.35-.26.59-.64.7-1.17h1.29c-.17.9-.55 1.57-1.14 2.02zm-.32-5.1c-.12-.28-.28-.51-.47-.71s-.43-.36-.71-.48c-.27-.12-.57-.18-.9-.18a2.206 2.206 0 0 0-1.61.66c-.19.21-.35.44-.46.71s-.18.56-.2.87h4.55a2.4 2.4 0 0 0-.2-.87z"/></svg>