<svg version="1.1" xmlns="http://www.w3.org/2000/svg" x="0" y="0" viewBox="0 0 160 54" xml:space="preserve">
  <path d="M131.2 33.68c0 1.31-.01 2.62.01 3.93 0 .35-.09.49-.46.48-.85-.02-1.69-.02-2.54 0-.37.01-.48-.13-.45-.48.02-.24 0-.48 0-.72 0-.08.01-.17-.08-.21-.1-.04-.14.05-.19.1-1.12 1.28-2.59 1.66-4.2 1.48-1.46-.16-2.67-.81-3.31-2.2-.56-1.24-.52-2.5.28-3.64.74-1.06 1.88-1.41 3.07-1.66 1.01-.21 2.03-.19 3.06-.19.46 0 .88-.07 1.08-.54.21-.5.04-.93-.28-1.33-.22-.28-.52-.44-.85-.51-1.2-.25-2.48-.07-3.29 1.08-.37.53-.38.52-.93.19-.61-.37-1.22-.76-1.85-1.1-.36-.19-.37-.38-.16-.7.82-1.2 1.96-1.96 3.35-2.31 1.53-.38 3.07-.43 4.58.12 2 .72 3.11 2.25 3.16 4.39.02 1.27-.01 2.54 0 3.82zm-6.25 1.93c1.44-.01 2.52-.99 2.58-2.28.01-.23.02-.47-.31-.47-.94 0-1.89-.09-2.81.15-.84.22-1.29 1.14-.9 1.88.31.61.93.65 1.44.72zM20.45 31.8L19 37.89c-.02.08-.09.14-.18.14h-3.9c-.08 0-.15-.06-.18-.14l-3.02-11.83c-.03-.11.06-.23.18-.23h2.95c.08 0 .16.06.18.14l1.96 8.25 2.03-8.25c.02-.08.09-.14.18-.14h3.04c.08 0 .16.06.18.14l2.01 8.3 1.99-8.3c.02-.08.09-.14.18-.14h2.83c.12 0 .2.11.18.23l-3.04 11.83c-.02.08-.09.14-.18.14h-3.95c-.08 0-.16-.06-.18-.14L20.8 31.8c-.04-.19-.31-.19-.35 0zM42.87 35.31c.09.06.12.18.06.26-.59.83-1.32 1.48-2.21 1.97-.94.51-2.1.77-3.46.77-.98 0-1.87-.16-2.65-.49-.78-.32-1.46-.77-2.02-1.33s-.99-1.23-1.3-2.01a6.96 6.96 0 01-.45-2.52c0-.87.15-1.7.46-2.47.31-.78.75-1.45 1.32-2.03.57-.58 1.25-1.03 2.04-1.37.79-.33 1.66-.5 2.62-.5.97 0 1.83.16 2.59.48.76.32 1.41.75 1.94 1.31.53.55.94 1.21 1.22 1.96.29.75.43 1.57.43 2.46 0 .17-.03.71-.04.99 0 .1-.08.17-.18.17H34.1c.17.78.54 1.39 1.11 1.85.56.46 1.27.69 2.13.69.74 0 1.38-.15 1.91-.44.48-.27.89-.62 1.22-1.05.06-.07.15-.09.23-.05l2.17 1.35zm-5.61-7.01c-.78 0-1.42.19-1.94.58-.52.39-.88.93-1.11 1.63h5.92c-.17-.74-.53-1.3-1.07-1.66-.53-.37-1.13-.55-1.8-.55zM53.55 38.19c-.7 0-1.36-.1-1.98-.29-.63-.19-1.15-.45-1.58-.78v.9h-3.12a.18.18 0 01-.18-.18V21.92c0-.1.08-.18.18-.18h2.94c.1 0 .18.08.18.18v4.88c.43-.33.95-.6 1.58-.8.64-.2 1.32-.3 2.04-.3.73.01 1.45.14 2.13.41.83.33 1.54.8 2.14 1.4.55.56 1 1.23 1.33 2 .33.77.5 1.59.5 2.46 0 .89-.17 1.71-.5 2.46-.33.75-.78 1.41-1.33 1.96s-1.21.99-1.96 1.31-1.55.49-2.37.49zm-.29-2.92c.44 0 .86-.08 1.26-.25.4-.17.74-.4 1.02-.7.29-.3.51-.65.68-1.05.17-.4.25-.82.25-1.28 0-.44-.08-.87-.25-1.27-.17-.4-.39-.75-.68-1.05a3.193 3.193 0 00-2.28-.96c-.46 0-.89.09-1.3.26-.4.17-.76.41-1.06.7-.3.29-.54.64-.71 1.05-.17.4-.26.83-.26 1.27 0 .46.08.89.25 1.28.17.4.4.75.7 1.05.3.3.65.53 1.06.7.41.16.85.25 1.32.25zM115.49 34.3a.179.179 0 00-.26.01c-.18.19-.37.36-.58.51-.46.34-1.07.51-1.83.51-.97 0-1.75-.31-2.34-.94-.59-.63-.89-1.44-.89-2.44s.3-1.8.89-2.42c.59-.61 1.37-.92 2.34-.92.76 0 1.37.17 1.83.51.2.15.38.31.56.49.07.07.18.08.25.01l1.91-1.9c.07-.07.07-.19 0-.26-.36-.37-.78-.7-1.23-.99-.94-.59-2.09-.88-3.44-.88-.95 0-1.82.17-2.6.5-.78.34-1.46.79-2.03 1.36-.58.57-1.02 1.24-1.33 2.02a6.51 6.51 0 00-.48 2.5c0 .89.16 1.72.48 2.48.32.77.76 1.44 1.33 2.01.57.57 1.25 1.02 2.03 1.36.78.33 1.65.5 2.6.5 1.35 0 2.49-.28 3.41-.85.47-.29.89-.62 1.28-1 .07-.07.07-.19 0-.26l-1.9-1.91zM134.67 38.02V25.83h3.3v1.66c.41-.55.92-1 1.51-1.33.59-.33 1.27-.5 2.03-.5v3.33c-1.22 0-2.11.31-2.67.94-.56.63-.84 1.47-.84 2.53v5.56h-3.33zM155.57 35.41c-.6.9-1.38 1.61-2.32 2.13-.94.51-2.1.77-3.46.77-.98 0-1.87-.16-2.65-.49-.78-.32-1.46-.77-2.02-1.33s-.99-1.23-1.3-2.01a6.96 6.96 0 01-.45-2.52c0-.87.15-1.7.46-2.47.31-.78.75-1.45 1.32-2.03.57-.58 1.25-1.03 2.04-1.37.79-.33 1.66-.5 2.62-.5.97 0 1.83.16 2.59.48.76.32 1.41.75 1.94 1.31.53.55.94 1.21 1.22 1.96.29.75.43 1.57.43 2.46 0 .24-.01.48-.02.74-.02.25-.02.4-.02.43h-9.32c.17.78.54 1.39 1.11 1.85.56.46 1.27.69 2.13.69.74 0 1.38-.15 1.91-.44.53-.29.97-.69 1.32-1.18l2.47 1.52zm-5.77-7.11c-.78 0-1.42.19-1.94.58-.52.39-.88.93-1.11 1.63h5.92c-.17-.74-.53-1.3-1.07-1.66a3.11 3.11 0 00-1.8-.55z"/>
  <circle cx="82.89" cy="31.89" r="22.11" fill="#7cc5f1"/>
  <path fill="#fff" d="M74.14 36.15c-.54.75-1.17 1.33-1.89 1.76-.73.43-1.68.64-2.88.64-1.68 0-3.06-.61-4.15-1.82-1.1-1.2-1.64-2.72-1.64-4.52 0-1.8.55-3.32 1.64-4.55 1.08-1.23 2.47-1.85 4.15-1.85 1.63 0 2.97.57 4.01 1.7 1.05 1.14 1.61 2.62 1.69 4.42v.74h-10.2c.1 1.33.56 2.45 1.39 3.36.82.92 1.86 1.37 3.1 1.37 1.74 0 3.07-.69 4-2.07l.78.82zm-7.88-7.79c-.83.92-1.3 2.04-1.39 3.37h8.96c-.08-1.35-.52-2.48-1.33-3.38-.83-.9-1.86-1.35-3.14-1.35-1.24 0-2.28.45-3.1 1.36zM79.16 40.53c.73 0 1.32-.27 1.79-.82.45-.56.89-1.31 1.31-2.25l-5.9-11.34h1.47l5.11 9.83 4.19-9.83h1.47l-5 11.29c-.61 1.43-1.23 2.53-1.88 3.3-.66.76-1.49 1.14-2.51 1.14h-1.24v-1.32h1.19zM100.78 36.15c-.54.75-1.17 1.33-1.89 1.76s-1.68.64-2.88.64c-1.68 0-3.06-.61-4.15-1.82-1.1-1.2-1.64-2.72-1.64-4.52 0-1.8.55-3.32 1.64-4.55 1.08-1.23 2.47-1.85 4.15-1.85 1.63 0 2.97.57 4.01 1.7 1.05 1.14 1.61 2.62 1.69 4.42v.74h-10.2c.1 1.33.56 2.45 1.39 3.36.82.92 1.86 1.37 3.1 1.37 1.74 0 3.07-.69 4-2.07l.78.82zm-7.87-7.79c-.83.92-1.3 2.04-1.39 3.37h8.96c-.08-1.35-.52-2.48-1.33-3.38-.83-.9-1.87-1.35-3.15-1.35-1.23 0-2.27.45-3.09 1.36z"/>
  <linearGradient id="SVGID_1_" gradientUnits="userSpaceOnUse" x1="0" y1="19.534" x2="160" y2="19.534">
    <stop offset="0" stop-color="#3162a8"/>
    <stop offset="1" stop-color="#7cc5f1"/>
  </linearGradient>
  <path d="M9.24 39.07a18.24 18.24 0 01-4.98-3.39c-1.48-1.42-2.78-3.17-3.55-5.29a11.69 11.69 0 01-.7-3.35c0-.28-.01-.58-.01-.87l.07-.87.1-.87.21-.85c.57-2.27 1.77-4.25 3.15-5.94 1.39-1.69 3.01-3.06 4.68-4.31.85-.59 1.7-1.19 2.58-1.7.87-.55 1.77-1.02 2.66-1.5 3.59-1.89 7.35-3.29 11.13-4.49C32.16 3.28 39.94 2 47.7 1.09 55.48.27 63.28-.06 71.07.02c7.79.1 15.56.54 23.28 1.42 7.72.86 15.4 2.08 22.98 3.79 7.58 1.69 15.06 3.84 22.31 6.6l2.69 1.1c.9.36 1.79.73 2.67 1.15l2.64 1.21 2.59 1.32c3.43 1.8 6.75 3.83 9.75 6.25-6.45-4.24-13.63-7.11-20.92-9.41-7.32-2.27-14.8-3.95-22.33-5.26-7.53-1.29-15.13-2.2-22.75-2.74-3.81-.25-7.63-.46-11.44-.58-3.82-.1-7.63-.13-11.44-.05-7.62.16-15.23.65-22.76 1.63-7.52.94-14.98 2.36-22.16 4.47-3.58 1.05-7.1 2.3-10.39 3.88-3.28 1.57-6.39 3.49-8.69 5.94-2.26 2.48-3.39 5.43-2.8 8.63.27 1.6.95 3.24 1.83 4.86.86 1.63 1.98 3.19 3.11 4.84z" fill="url(#SVGID_1_)"/>
</svg>